<svg width="28" height="30" viewBox="0 0 28 30" fill="none" xmlns="http://www.w3.org/2000/svg">
<path d="M10.0625 2.8125H17.9375C18.1781 2.8125 18.375 3.02344 18.375 3.28125V5.625H9.625V3.28125C9.625 3.02344 9.82187 2.8125 10.0625 2.8125ZM7 3.28125V5.625H3.5C1.56953 5.625 0 7.30664 0 9.375V15H10.5H17.5H28V9.375C28 7.30664 26.4305 5.625 24.5 5.625H21V3.28125C21 1.4707 19.6273 0 17.9375 0H10.0625C8.37266 0 7 1.4707 7 3.28125ZM28 16.875H17.5V18.75C17.5 19.7871 16.718 20.625 15.75 20.625H12.25C11.282 20.625 10.5 19.7871 10.5 18.75V16.875H0V24.375C0 26.4434 1.56953 28.125 3.5 28.125H24.5C26.4305 28.125 28 26.4434 28 24.375V16.875Z" fill="#31ADB5" fill-opacity="0.18"/>
</svg>
