<svg width="32" height="27" viewBox="0 0 32 27" fill="none" xmlns="http://www.w3.org/2000/svg">
<g id="coins-solid 1" clip-path="url(#clip0_12_223)">
<path id="Vector" d="M32 4.21875C32 5.16797 31.1063 6.04336 29.6 6.75C27.7813 7.59902 25.0687 8.20019 21.9562 8.37949C21.725 8.28457 21.4938 8.19492 21.25 8.11582C18.7875 7.2457 15.5125 6.75 12 6.75C11.4812 6.75 10.975 6.76055 10.4688 6.78164L10.4 6.75C8.89375 6.04336 8 5.16797 8 4.21875C8 1.88789 13.375 0 20 0C26.625 0 32 1.88789 32 4.21875ZM10.0437 8.49551C10.6812 8.45859 11.3375 8.4375 12 8.4375C15.8875 8.4375 19.3375 9.08613 21.5312 10.0934C23.0812 10.8053 24 11.6912 24 12.6562C24 12.8672 23.9562 13.0729 23.8687 13.2732C23.5812 13.9693 22.8062 14.6074 21.6812 15.1453C21.675 15.1506 21.6625 15.1506 21.6562 15.1559C21.6375 15.1664 21.6188 15.1717 21.6 15.1822C19.4125 16.2053 15.925 16.8697 12 16.8697C8.275 16.8697 4.94375 16.2738 2.7375 15.3352C2.61875 15.2877 2.50625 15.235 2.39375 15.1822C0.89375 14.4809 0 13.6055 0 12.6562C0 10.8211 3.3375 9.25488 8 8.68008C8.65625 8.60098 9.3375 8.5377 10.0437 8.49551ZM26 12.6562C26 11.5014 25.3375 10.5521 24.4937 9.84023C26.2625 9.6082 27.8813 9.23906 29.2563 8.75918C30.275 8.40059 31.225 7.95762 32 7.41445V9.28125C32 10.299 30.9688 11.2377 29.2625 11.9654C28.35 12.3557 27.2375 12.6879 25.9875 12.941C25.9937 12.8461 26 12.7564 26 12.6615V12.6562ZM24 17.7188C24 18.668 23.1063 19.5434 21.6 20.25C21.4875 20.3027 21.375 20.3502 21.2563 20.4029C19.0563 21.3416 15.725 21.9375 12 21.9375C8.075 21.9375 4.5875 21.273 2.4 20.25C0.89375 19.5434 0 18.668 0 17.7188V15.852C0.78125 16.3951 1.725 16.8381 2.74375 17.1967C5.2125 18.0668 8.4875 18.5625 12 18.5625C15.5125 18.5625 18.7875 18.0668 21.2563 17.1967C21.7438 17.0279 22.2125 16.8328 22.6562 16.6219C23.0375 16.4426 23.3938 16.2422 23.7313 16.0312C23.825 15.9732 23.9125 15.91 24 15.852V16.0312V16.3318V17.7188ZM26 17.7188V16.0312V14.6654C27.1875 14.4439 28.2813 14.1645 29.2563 13.8217C30.275 13.4631 31.225 13.0201 32 12.477V14.3438C32 14.8975 31.6875 15.4512 31.0688 15.9732C30.05 16.8328 28.2562 17.5395 25.9875 17.9982C25.9937 17.9086 26 17.8137 26 17.7188ZM12 23.625C15.5125 23.625 18.7875 23.1293 21.2563 22.2592C22.275 21.9006 23.225 21.4576 24 20.9145V22.7812C24 25.1121 18.625 27 12 27C5.375 27 0 25.1121 0 22.7812V20.9145C0.78125 21.4576 1.725 21.9006 2.74375 22.2592C5.2125 23.1293 8.4875 23.625 12 23.625Z" fill="#31ADB5" fill-opacity="0.18"/>
</g>
<defs>
<clipPath id="clip0_12_223">
<rect width="32" height="27" fill="white"/>
</clipPath>
</defs>
</svg>
