<svg width="31" height="30" viewBox="0 0 31 30" fill="none" xmlns="http://www.w3.org/2000/svg">
<g id="bars-progress-solid 1">
<path id="Vector" d="M27.125 9.375H19.375V7.5H27.125V9.375ZM2.90625 3.75C1.30176 3.75 0 5.00977 0 6.5625V10.3125C0 11.8652 1.30176 13.125 2.90625 13.125H28.0938C29.6982 13.125 31 11.8652 31 10.3125V6.5625C31 5.00977 29.6982 3.75 28.0938 3.75H2.90625ZM27.125 20.625V22.5H11.625V20.625H27.125ZM2.90625 16.875C1.30176 16.875 0 18.1348 0 19.6875V23.4375C0 24.9902 1.30176 26.25 2.90625 26.25H28.0938C29.6982 26.25 31 24.9902 31 23.4375V19.6875C31 18.1348 29.6982 16.875 28.0938 16.875H2.90625Z" fill="#31ADB5" fill-opacity="0.18"/>
</g>
</svg>
