<svg width="26" height="29" viewBox="0 0 26 29" fill="none" xmlns="http://www.w3.org/2000/svg">
<g id="file-invoice-dollar-solid 1" clip-path="url(#clip0_12_221)">
<path id="Vector" d="M4.33333 0C1.94323 0 0 1.62559 0 3.625V25.375C0 27.3744 1.94323 29 4.33333 29H21.6667C24.0568 29 26 27.3744 26 25.375V9.0625H17.3333C16.1349 9.0625 15.1667 8.25254 15.1667 7.25V0H4.33333ZM17.3333 0V7.25H26L17.3333 0ZM4.33333 4.53125C4.33333 4.03281 4.82083 3.625 5.41667 3.625H9.75C10.3458 3.625 10.8333 4.03281 10.8333 4.53125C10.8333 5.02969 10.3458 5.4375 9.75 5.4375H5.41667C4.82083 5.4375 4.33333 5.02969 4.33333 4.53125ZM4.33333 8.15625C4.33333 7.65781 4.82083 7.25 5.41667 7.25H9.75C10.3458 7.25 10.8333 7.65781 10.8333 8.15625C10.8333 8.65469 10.3458 9.0625 9.75 9.0625H5.41667C4.82083 9.0625 4.33333 8.65469 4.33333 8.15625ZM13 12.2344C13.5958 12.2344 14.0833 12.6422 14.0833 13.1406V14.1205C14.6589 14.1885 15.2141 14.2961 15.7151 14.4094C16.2906 14.5396 16.6359 15.0324 16.4802 15.5195C16.3245 16.0066 15.7354 16.2898 15.1531 16.1596C14.4016 15.9896 13.6635 15.865 12.9797 15.8594C12.4109 15.8537 11.8016 15.9613 11.3818 16.1709C10.9958 16.3635 10.8333 16.5844 10.8333 16.8959C10.8333 17.1055 10.9214 17.2641 11.3276 17.468C11.7948 17.7002 12.4516 17.8701 13.3047 18.0854L13.3385 18.091C14.1036 18.2836 15.0516 18.5215 15.7964 18.918C16.6156 19.3484 17.313 20.0338 17.3333 21.0816C17.3536 22.1748 16.6833 22.9678 15.7828 23.4379C15.2615 23.7098 14.6724 23.8684 14.0833 23.9533V24.9219C14.0833 25.4203 13.5958 25.8281 13 25.8281C12.4042 25.8281 11.9167 25.4203 11.9167 24.9219V23.9137C11.1583 23.7947 10.4474 23.5908 9.82448 23.4096C9.68229 23.3699 9.5401 23.3303 9.40469 23.2906C8.83594 23.132 8.53125 22.6166 8.72083 22.1465C8.91042 21.6764 9.52656 21.4158 10.0885 21.5744C10.2578 21.6197 10.4135 21.665 10.5693 21.7104C11.4901 21.9709 12.2349 22.1861 13.0271 22.2031C13.6432 22.2201 14.2391 22.1068 14.6318 21.9029C14.9771 21.7217 15.1667 21.4895 15.1599 21.11C15.1531 20.8494 15.038 20.6682 14.6385 20.4529C14.1781 20.2094 13.5214 20.0338 12.675 19.8186L12.5667 19.7902C11.8219 19.6033 10.9214 19.3768 10.2104 19.0143C9.39792 18.6064 8.68021 17.9437 8.67344 16.9016C8.66667 15.8027 9.40469 15.0437 10.2849 14.6076C10.7927 14.3584 11.3547 14.1998 11.9167 14.1148V13.1406C11.9167 12.6422 12.4042 12.2344 13 12.2344Z" fill="#31ADB5" fill-opacity="0.18"/>
</g>
<defs>
<clipPath id="clip0_12_221">
<rect width="26" height="29" fill="white"/>
</clipPath>
</defs>
</svg>
